<?xml version="1.0" encoding="UTF-8" standalone="no"?>
<!-- Created with Inkscape (http://www.inkscape.org/) -->

<svg
   width="512"
   height="512"
   viewBox="0 0 512 512"
   version="1.1"
   id="svg1"
   inkscape:version="1.3.2 (091e20e, 2023-11-25)"
   sodipodi:docname="icons.svg"
   xmlns:inkscape="http://www.inkscape.org/namespaces/inkscape"
   xmlns:sodipodi="http://sodipodi.sourceforge.net/DTD/sodipodi-0.dtd"
   xmlns="http://www.w3.org/2000/svg"
   xmlns:svg="http://www.w3.org/2000/svg">
  <sodipodi:namedview
     id="namedview1"
     pagecolor="#ffffff"
     bordercolor="#000000"
     borderopacity="0.25"
     inkscape:showpageshadow="2"
     inkscape:pageopacity="0.0"
     inkscape:pagecheckerboard="0"
     inkscape:deskcolor="#d1d1d1"
     inkscape:document-units="px"
     inkscape:zoom="0.33974271"
     inkscape:cx="400.30292"
     inkscape:cy="357.62357"
     inkscape:window-width="1366"
     inkscape:window-height="699"
     inkscape:window-x="0"
     inkscape:window-y="32"
     inkscape:window-maximized="1"
     inkscape:current-layer="layer1">
    <inkscape:page
       x="0"
       y="0"
       width="512"
       height="512"
       id="page3"
       margin="0"
       bleed="0" />
    <inkscape:page
       x="522"
       y="0"
       width="512"
       height="512"
       id="page4"
       margin="0"
       bleed="0" />
  </sodipodi:namedview>
  <defs
     id="defs1" />
  <g
     inkscape:label="Layer 1"
     inkscape:groupmode="layer"
     id="layer1">
    <path
       id="path1"
       style="fill:#fc8168;fill-opacity:1;stroke:none;stroke-width:33.9468"
       d="m 133.83326,26.460699 a 144.11521,144.11521 0 0 0 -91.623925,41.845869 144.11521,144.11521 0 0 0 5e-6,203.807622 l 9.981535,9.98154 203.810635,203.81064 203.80762,-203.81064 9.98153,-9.98152 a 144.11521,144.11521 0 0 0 0,-203.807635 144.11521,144.11521 0 0 0 -203.80762,-10e-7 l -9.98153,9.981528 -9.98153,-9.981534 A 144.11521,144.11521 0 0 0 133.83326,26.460699 Z" />
    <path
       id="path1-1"
       style="fill:none;fill-opacity:1;stroke:#fc8168;stroke-width:31.8484;stroke-opacity:1"
       d="m 663.38476,40.866519 a 135.20701,135.20701 0 0 0 -85.96037,39.259246 135.20701,135.20701 0 0 0 10e-6,191.209635 l 9.36455,9.36456 191.21246,191.21247 191.20964,-191.21247 9.36455,-9.36454 a 135.20701,135.20701 0 0 0 0,-191.209649 135.20701,135.20701 0 0 0 -191.20964,-10e-7 l -9.36455,9.364543 -9.36453,-9.364548 A 135.20701,135.20701 0 0 0 663.38476,40.866519 Z" />
  </g>
</svg>
