<?xml version="1.0" encoding="UTF-8" standalone="no"?>
<!-- Created with Inkscape (http://www.inkscape.org/) -->

<svg
   width="512"
   height="512"
   viewBox="0 0 512 512"
   version="1.1"
   id="svg1"
   inkscape:version="1.3.2 (091e20e, 2023-11-25)"
   sodipodi:docname="icons.svg"
   xmlns:inkscape="http://www.inkscape.org/namespaces/inkscape"
   xmlns:sodipodi="http://sodipodi.sourceforge.net/DTD/sodipodi-0.dtd"
   xmlns="http://www.w3.org/2000/svg"
   xmlns:svg="http://www.w3.org/2000/svg">
  <sodipodi:namedview
     id="namedview1"
     pagecolor="#ffffff"
     bordercolor="#000000"
     borderopacity="0.25"
     inkscape:showpageshadow="2"
     inkscape:pageopacity="0.0"
     inkscape:pagecheckerboard="0"
     inkscape:deskcolor="#d1d1d1"
     inkscape:document-units="px"
     inkscape:zoom="0.24023437"
     inkscape:cx="520.32521"
     inkscape:cy="222.69919"
     inkscape:window-width="1366"
     inkscape:window-height="699"
     inkscape:window-x="0"
     inkscape:window-y="32"
     inkscape:window-maximized="1"
     inkscape:current-layer="layer1">
    <inkscape:page
       x="0"
       y="0"
       width="512"
       height="512"
       id="page3"
       margin="0"
       bleed="0" />
    <inkscape:page
       x="522"
       y="0"
       width="512"
       height="512"
       id="page4"
       margin="0"
       bleed="0"
       inkscape:export-filename="heart_empty.png"
       inkscape:export-xdpi="96"
       inkscape:export-ydpi="96" />
  </sodipodi:namedview>
  <defs
     id="defs1" />
  <g
     inkscape:label="Layer 1"
     inkscape:groupmode="layer"
     id="layer1">
    <path
       id="path1"
       style="fill:#fc8168;fill-opacity:1;stroke:none;stroke-width:35.8214"
       d="M 133.83326,0.40872455 A 144.11521,160.47183 0 0 0 42.209335,47.003965 144.11521,160.47183 0 0 0 42.20934,273.9431 L 52.190875,285.05751 256.00151,512 459.80913,285.05751 l 9.98153,-11.11439 a 144.11521,160.47183 0 0 0 0,-226.939147 144.11521,160.47183 0 0 0 -203.80762,-1e-6 l -9.98153,11.114399 -9.98153,-11.114406 A 144.11521,160.47183 0 0 0 133.83326,0.40872455 Z" />
    <path
       id="path1-1"
       style="fill:none;fill-opacity:1;stroke:#fc8168;stroke-width:33.2079;stroke-opacity:1"
       d="m 663.75144,17.268248 a 134.77445,147.46722 0 0 0 -85.68536,42.81917 134.77445,147.46722 0 0 0 10e-6,208.548032 l 9.33459,10.2137 190.60073,208.55112 190.59791,-208.55112 9.33459,-10.21369 a 134.77445,147.46722 0 0 0 0,-208.548036 134.77445,147.46722 0 0 0 -190.59792,-10e-7 L 778.00141,70.30112 768.66683,60.087418 A 134.77445,147.46722 0 0 0 663.75144,17.268248 Z" />
  </g>
</svg>
